<svg xmlns="http://www.w3.org/2000/svg" width="1.23em" height="1em" viewBox="0 0 256 209"><rect x="0" y="0" width="256" height="209" fill="rgba(255, 255, 255, 0)" /><path fill="#55acee" d="M256 25.45a105.04 105.04 0 0 1-30.166 8.27c10.845-6.5 19.172-16.793 23.093-29.057a105.183 105.183 0 0 1-33.351 12.745C205.995 7.201 192.346.822 177.239.822c-29.006 0-52.523 23.516-52.523 52.52c0 4.117.465 8.125 1.36 11.97c-43.65-2.191-82.35-23.1-108.255-54.876c-4.52 7.757-7.11 16.78-7.11 26.404c0 18.222 9.273 34.297 23.365 43.716a52.312 52.312 0 0 1-23.79-6.57c-.003.22-.003.44-.003.661c0 25.447 18.104 46.675 42.13 51.5a52.592 52.592 0 0 1-23.718.9c6.683 20.866 26.08 36.05 49.062 36.475c-17.975 14.086-40.622 22.483-65.228 22.483c-4.24 0-8.42-.249-12.529-.734c23.243 14.902 50.85 23.597 80.51 23.597c96.607 0 149.434-80.031 149.434-149.435c0-2.278-.05-4.543-.152-6.795A106.748 106.748 0 0 0 256 25.45"/></svg>


///////////////////////////
<svg xmlns="http://www.w3.org/2000/svg" width="1.23em" height="1em" fill="currentColor" class="bi bi-twitter-x" viewBox="0 0 16 16">
  <path d="M12.6.75h2.454l-5.36 6.142L16 15.25h-4.937l-3.867-5.07-4.425 5.07H.316l5.733-6.57L0 .75h5.063l3.495 4.633L12.601.75Zm-.86 13.028h1.36L4.323 2.145H2.865z"/>
</svg>